<?xml version="1.0" encoding="UTF-8"?>
<svg version="1.1" xmlns="http://www.w3.org/2000/svg" width="192" height="192">
<path d="M0 0 C16.1503192 -0.02332909 32.30063296 -0.04097922 48.45096493 -0.05181217 C55.94933064 -0.05697511 63.44768591 -0.06401776 70.94604492 -0.07543945 C77.47930504 -0.08538637 84.01255759 -0.09185344 90.54582506 -0.09408849 C94.00721807 -0.09539559 97.46858942 -0.09848136 100.92997551 -0.10573006 C104.78787527 -0.11374407 108.64575357 -0.11399113 112.50366211 -0.11352539 C114.23750656 -0.1189183 114.23750656 -0.1189183 116.00637817 -0.12442017 C117.05110794 -0.1230455 118.09583771 -0.12167084 119.17222595 -0.12025452 C120.54247122 -0.12163721 120.54247122 -0.12163721 121.94039822 -0.12304783 C124 0 124 0 125 1 C125.09932153 2.69558726 125.13080007 4.39525747 125.1328125 6.09375 C125.13410156 7.12371094 125.13539063 8.15367188 125.13671875 9.21484375 C125.13285156 10.29894531 125.12898438 11.38304687 125.125 12.5 C125.12886719 13.58410156 125.13273437 14.66820312 125.13671875 15.78515625 C125.13542969 16.81511719 125.13414062 17.84507812 125.1328125 18.90625 C125.13168457 19.85822266 125.13055664 20.81019531 125.12939453 21.79101562 C125 24 125 24 124 25 C121.03 25 118.06 25 115 25 C115 41.5 115 58 115 75 C80.02 75 45.04 75 9 75 C9 58.5 9 42 9 25 C6.03 25 3.06 25 0 25 C-0.92673806 22.21978582 -1.12855766 20.52766109 -1.1328125 17.65625 C-1.13410156 16.82222656 -1.13539062 15.98820313 -1.13671875 15.12890625 C-1.13285156 14.26136719 -1.12898438 13.39382812 -1.125 12.5 C-1.12886719 11.63246094 -1.13273437 10.76492187 -1.13671875 9.87109375 C-1.13542969 9.03707031 -1.13414063 8.20304687 -1.1328125 7.34375 C-1.13168457 6.58255859 -1.13055664 5.82136719 -1.12939453 5.03710938 C-1 3 -1 3 0 0 Z " fill="#403F3F" transform="translate(33,117)"/>
<path d="M0 0 C-0.45822468 3.46941546 -0.89131683 6.67395049 -2 10 C-2.87846235 18.52540509 -1.65484907 26.82315996 3.37890625 33.953125 C4.55279421 35.33102198 5.77221689 36.66990163 7 38 C7 38.66 7 39.32 7 40 C7.5775 40.268125 8.155 40.53625 8.75 40.8125 C11.0325868 42.01719859 12.9737942 43.40798115 15 45 C18.30689267 40.83043968 19.12933795 37.57232494 19.5625 32.3125 C19.68818359 30.82169922 19.68818359 30.82169922 19.81640625 29.30078125 C19.87699219 28.54152344 19.93757813 27.78226563 20 27 C24 27 24 27 26.4375 28.94140625 C31.11857814 33.72952124 35.16872072 37.91799266 38 44 C38.44214844 44.76699219 38.88429688 45.53398438 39.33984375 46.32421875 C42.87923308 53.19710495 43.4988871 59.52643945 43.5625 67.125 C43.57700195 68.04289307 43.59150391 68.96078613 43.60644531 69.90649414 C43.43930799 81.28711893 38.78411112 90.14077055 30.89453125 98.1328125 C26.27374688 102.44342374 21.88915837 105.6646441 16 108 C14.515 107.505 14.515 107.505 13 107 C14.875 101.25 14.875 101.25 16 99 C16.53095543 91.69936278 16.61091779 85.46956104 13 79 C12.401875 79.763125 11.80375 80.52625 11.1875 81.3125 C7.56948229 85.75749319 7.56948229 85.75749319 6 87 C4.68 87 3.36 87 2 87 C2.05220703 86.14728516 2.05220703 86.14728516 2.10546875 85.27734375 C2.30230592 79.66279774 1.55495317 76.00344995 -1 71 C-1.99 72.65 -2.98 74.3 -4 76 C-6.25 75.9375 -6.25 75.9375 -9 75 C-14.54145425 68.70970058 -13.36529488 60.88428108 -13 53 C-21.33626158 58.64831667 -26.56643012 64.81370542 -28.73046875 74.8046875 C-29.26902274 79.19117073 -29.14589508 83.59072644 -29 88 C-34.27928483 86.03662961 -36.87048124 83.69427814 -40 79 C-42.98901987 85.83928275 -43.57785998 91.67171699 -42 99 C-40.5578092 101.85248773 -40.5578092 101.85248773 -39 104 C-39 105.32 -39 106.64 -39 108 C-47.2843088 107.21219054 -53.62611868 101.56633088 -59.19140625 95.68359375 C-68.47165939 84.15844136 -70.20247097 72.92164074 -68.7265625 58.2890625 C-66.62299159 45.70732706 -59.25751764 35.44011875 -50 27 C-47 25 -47 25 -44 25 C-43.89042969 26.09699219 -43.78085938 27.19398437 -43.66796875 28.32421875 C-43.50844334 29.77871516 -43.34825187 31.23313863 -43.1875 32.6875 C-43.11724609 33.40873047 -43.04699219 34.12996094 -42.97460938 34.87304688 C-42.47207497 39.27524829 -41.65365657 42.31396197 -39 46 C-38.98582031 45.27296875 -38.97164062 44.5459375 -38.95703125 43.796875 C-38.57101925 35.65932483 -36.53107404 29.30415316 -33 22 C-32.66226563 21.27554687 -32.32453125 20.55109375 -31.9765625 19.8046875 C-30.46445157 17.01030649 -28.31579525 15.1614089 -26 13 C-25.27683594 12.28650391 -25.27683594 12.28650391 -24.5390625 11.55859375 C-18.13770482 5.57878889 -8.8897992 0 0 0 Z " fill="#F78939" transform="translate(108,0)"/>
<path d="M0 0 C8.16233476 -0.06948076 16.32454617 -0.12280118 24.48710346 -0.15543652 C28.2772344 -0.1710991 32.06716316 -0.19234778 35.85717773 -0.22631836 C39.51410601 -0.2588913 43.1708397 -0.27684855 46.82790184 -0.28463173 C48.22378796 -0.29017901 49.61966331 -0.3010115 51.01546669 -0.31719017 C52.9689459 -0.33893429 54.92262051 -0.34022515 56.8762207 -0.34057617 C57.9887471 -0.34723801 59.1012735 -0.35389984 60.24751282 -0.36076355 C63 0 63 0 64.85929871 1.36503601 C66.49389865 3.70790356 66.41861671 5.20922192 66 8 C64.85058594 9.6309967 64.85058594 9.6309967 63 11 C60.30566406 11.38768005 60.30566406 11.38768005 57.015625 11.40405273 C55.16855957 11.42307899 55.16855957 11.42307899 53.28417969 11.44248962 C51.93945142 11.44043832 50.5947243 11.43745041 49.25 11.43359375 C47.87141665 11.43815438 46.49283557 11.4434596 45.11425781 11.44947815 C42.22581746 11.45841249 39.33765355 11.45598232 36.44921875 11.44604492 C32.74656862 11.4345479 29.04487114 11.45477467 25.34234619 11.48396206 C22.4958693 11.50230165 19.64962173 11.50203633 16.80310059 11.49632454 C15.43793398 11.49617108 14.07275207 11.50223575 12.7076416 11.51461601 C10.79993913 11.52948066 8.89208003 11.51624238 6.984375 11.50170898 C5.89866211 11.50154282 4.81294922 11.50137665 3.69433594 11.50120544 C1 11 1 11 -0.88964844 9.13270569 C-2 7 -2 7 -1.75 4.375 C-1 2 -1 2 0 0 Z " fill="#FA8329" transform="translate(63,166)"/>
<path d="M0 0 C3.4693484 3.59750375 3.375246 6.56744486 3.3125 11.4375 C3.30863281 12.73558594 3.30476563 14.03367187 3.30078125 15.37109375 C3.02350431 18.71642197 2.44892102 21.00402387 1 24 C2.32 24.33 3.64 24.66 5 25 C3.02 25.66 1.04 26.32 -1 27 C-1 23 -1 23 -0.01171875 20.65625 C1.20769973 17.45468797 1.23141374 14.9172876 1.1875 11.5 C1.18105469 10.3965625 1.17460938 9.293125 1.16796875 8.15625 C1.01744156 5.32773917 0.64204162 2.75307445 0 0 Z " fill="#F8E5D3" transform="translate(123,81)"/>
<path d="M0 0 C1 2 1 2 0.4765625 3.8046875 C0.05503906 4.82949219 0.05503906 4.82949219 -0.375 5.875 C-2.33154735 10.68408368 -3.12474824 14.52114743 -3.0625 19.75 C-3.04896484 21.22726563 -3.04896484 21.22726563 -3.03515625 22.734375 C-3.02355469 23.48203125 -3.01195313 24.2296875 -3 25 C-5.475 24.01 -5.475 24.01 -8 23 C-7.01 22.67 -6.02 22.34 -5 22 C-5.04640625 21.40574219 -5.0928125 20.81148437 -5.140625 20.19921875 C-5.44978612 13.09955446 -3.91903228 7.45938468 -1 1 C-0.67 0.67 -0.34 0.34 0 0 Z " fill="#F4CEAB" transform="translate(82,63)"/>
<path d="M0 0 C3.16115776 1.36983503 3.9927092 1.9890638 6 5 C4.35 4.67 2.7 4.34 1 4 C0.93941406 4.60328125 0.87882813 5.2065625 0.81640625 5.828125 C0.69072266 7.02695312 0.69072266 7.02695312 0.5625 8.25 C0.48128906 9.03890625 0.40007812 9.8278125 0.31640625 10.640625 C0.02365007 12.82364639 -0.42064419 14.8773182 -1 17 C-1.66 17 -2.32 17 -3 17 C-2.69268013 14.35346869 -2.37940678 11.707885 -2.0625 9.0625 C-1.97548828 8.30775391 -1.88847656 7.55300781 -1.79882812 6.77539062 C-1.11328125 1.11328125 -1.11328125 1.11328125 0 0 Z " fill="#F4CCAB" transform="translate(129,26)"/>
<path d="M0 0 C0.66 0.33 1.32 0.66 2 1 C-0.29598016 4.68996811 -2.22792744 7.73675646 -6 10 C-6.66 10 -7.32 10 -8 10 C-8.33 10.66 -8.66 11.32 -9 12 C-9 9 -9 9 -6.75 6.5625 C-5.8425 5.716875 -4.935 4.87125 -4 4 C-3.236875 3.236875 -2.47375 2.47375 -1.6875 1.6875 C-1.130625 1.130625 -0.57375 0.57375 0 0 Z " fill="#F5C5A0" transform="translate(86,9)"/>
<path d="M0 0 C2.52259061 1.97420135 2.9929808 2.96745642 3.6875 6.1875 C3.790625 7.115625 3.89375 8.04375 4 9 C-1.35048061 8.62671065 -3.50912907 7.0042343 -7 3 C-3.9168649 4.19899698 -0.93720508 5.47700477 2 7 C1.34 4.69 0.68 2.38 0 0 Z " fill="#F4DEC5" transform="translate(65,99)"/>
<path d="M0 0 C0.99 0.33 1.98 0.66 3 1 C3.144375 2.11375 3.28875 3.2275 3.4375 4.375 C3.78372035 7.82142047 3.78372035 7.82142047 5 10 C2 9 2 9 0.25 6.125 C-1 3 -1 3 0 0 Z " fill="#F5CBA8" transform="translate(69,75)"/>
<path d="M0 0 C0.66 0.66 1.32 1.32 2 2 C0.68 4.31 -0.64 6.62 -2 9 C-2.33 9 -2.66 9 -3 9 C-3 7.35 -3 5.7 -3 4 C-2.34 3.67 -1.68 3.34 -1 3 C-0.67 2.01 -0.34 1.02 0 0 Z " fill="#F5CDA9" transform="translate(119,75)"/>
</svg>
